<?xml version="1.0" encoding="UTF-8" standalone="no"?>
<svg
   xmlns:dc="http://purl.org/dc/elements/1.1/"
   xmlns:cc="http://creativecommons.org/ns#"
   xmlns:rdf="http://www.w3.org/1999/02/22-rdf-syntax-ns#"
   xmlns:svg="http://www.w3.org/2000/svg"
   xmlns="http://www.w3.org/2000/svg"
   viewBox="0 0 251.03999 318.57333"
   height="318.57333"
   width="251.03999"
   xml:space="preserve"
   id="svg2"
   version="1.1"><metadata
     id="metadata8"><rdf:RDF><cc:Work
         rdf:about=""><dc:format>image/svg+xml</dc:format><dc:type
           rdf:resource="http://purl.org/dc/dcmitype/StillImage" /></cc:Work></rdf:RDF></metadata><defs
     id="defs6"><clipPath
       id="clipPath26"
       clipPathUnits="userSpaceOnUse"><path
         id="path24"
         d="m 571.121,1501.96 680.759,39.55 -123.34,-299.7 -103.79,-53.55 V 860.469 l -84.074,137.48 -136.125,-144.359 -1.367,331.56 -113.575,59.78 z" /></clipPath><radialGradient
       id="radialGradient32"
       spreadMethod="pad"
       gradientTransform="matrix(394.155,260.359,260.359,-394.155,1092.9,1333.43)"
       gradientUnits="userSpaceOnUse"
       r="1"
       cy="0"
       cx="0"
       fy="0"
       fx="0"><stop
         id="stop28"
         offset="0"
         style="stop-opacity:1;stop-color:#21201f" /><stop
         id="stop30"
         offset="1"
         style="stop-opacity:1;stop-color:#191716" /></radialGradient><clipPath
       id="clipPath52"
       clipPathUnits="userSpaceOnUse"><path
         id="path50"
         d="m 931.758,1458.14 -186.184,175.21 -6.445,112.31 c 4.101,2.43 8.254,5.41 12.453,9 l -6.711,73.74 6.711,-28.94 40.969,22.17 c -6.848,17.64 -14.723,57.07 -22.18,101.86 -1.406,8.45 -2.797,17.09 -4.172,25.82 v 0 c -1.187,7.58 -2.359,15.21 -3.504,22.84 v 0 c -0.691,4.62 -1.379,9.22 -2.05,13.82 v 0 c -10.598,72.17 -18.614,139.35 -18.614,139.35 10.801,5.4 31.117,7.48 56.071,7.48 84.589,0 222.348,-23.98 222.348,-23.98 29.49,9.88 52.93,20.44 71.43,31.34 l 15.18,-450.01 74.25,-118.58 -249.552,-113.43 m -2.063,184.59 c 20.293,-25.44 37.176,-34.19 50.809,-34.19 30.016,0 44.246,42.43 44.246,42.43 -22.61,-9.98 -43.723,-12.77 -60.281,-12.77 -21.074,0 -34.774,4.53 -34.774,4.53" /></clipPath><radialGradient
       id="radialGradient58"
       spreadMethod="pad"
       gradientTransform="matrix(292.608,170.52,170.52,-292.608,1085.41,1857.21)"
       gradientUnits="userSpaceOnUse"
       r="1"
       cy="0"
       cx="0"
       fy="0"
       fx="0"><stop
         id="stop54"
         offset="0"
         style="stop-opacity:1;stop-color:#f7d189" /><stop
         id="stop56"
         offset="1"
         style="stop-opacity:1;stop-color:#de9f5d" /></radialGradient><clipPath
       id="clipPath68"
       clipPathUnits="userSpaceOnUse"><path
         id="path66"
         d="m 710.594,1737.2 c -63.035,0.01 -101.93,126.19 -57.918,165.81 12.226,11 23.512,15.23 33.64,15.23 7.653,0 14.641,-2.41 20.875,-6.14 0,-0.01 0,-0.01 0,-0.01 v 0 c 0,0 0.004,0 0.004,0 v 0 0 0 c 0,0 0,0 0,-0.01 v 0 c 0,0 2.414,-1.99 5.891,-5.12 h 0.004 c 4.887,-4.41 11.961,-11.2 17.84,-18.42 l 13.941,-60.14 6.711,-73.74 c -4.199,-3.59 -8.352,-6.57 -12.453,-9 -9.899,-5.85 -19.465,-8.47 -28.535,-8.46" /></clipPath><radialGradient
       id="radialGradient74"
       spreadMethod="pad"
       gradientTransform="matrix(127.872,137.153,137.153,-127.872,511.035,1888.16)"
       gradientUnits="userSpaceOnUse"
       r="1"
       cy="0"
       cx="0"
       fy="0"
       fx="0"><stop
         id="stop70"
         offset="0"
         style="stop-opacity:1;stop-color:#f7d189" /><stop
         id="stop72"
         offset="1"
         style="stop-opacity:1;stop-color:#de9f5d" /></radialGradient><clipPath
       id="clipPath94"
       clipPathUnits="userSpaceOnUse"><path
         id="path92"
         d="M 0,0 H 1883 V 2389 H 0 Z" /></clipPath><clipPath
       id="clipPath100"
       clipPathUnits="userSpaceOnUse"><path
         id="path98"
         d="m 751.582,1799.46 -6.711,28.94 -13.941,60.14 c -5.879,7.22 -12.953,14.01 -17.84,18.42 l 58.289,10.51 c -0.34,2 -0.676,4 -1.008,6.02 7.457,-44.79 15.332,-84.22 22.18,-101.86 l -40.969,-22.17 m -44.387,112.62 c 0,0.01 0,0.01 0,0.01 0,0 0,0 0,-0.01 m 0,0.01 v 0 0 m 0,0 c 0,0 -0.004,0 -0.004,0 0,0 0.004,0 0.004,0 m -0.004,0 c 0,0 0,0 0,0.01 h -0.003 c 0.003,0 0.003,-0.01 0.003,-0.01 m -0.003,0.02 c -0.333,0.71 -8.016,17.3 -18.754,41.13 25.254,7.12 54.754,14.31 74.261,18.91 1.145,-7.63 2.317,-15.26 3.504,-22.84 l -70.906,-11.21 c 7.004,-15.43 11.637,-25.44 11.895,-25.99 m -23.59,51.89 c -21.426,47.83 -51.25,116.31 -61.879,149.97 -10.41,32.99 36.437,54.63 36.437,54.63 0,0 -36.164,79.11 -14.433,88.36 64.91,27.62 369.157,-7.91 349.91,132.33 0,0 124.767,-56.72 113.427,-172.21 0,0 24.75,28.88 18.56,76.31 0,0 84.89,-83.35 -33.74,-153.23 -18.5,-10.9 -41.94,-21.46 -71.43,-31.34 0,0 -137.759,23.98 -222.348,23.98 -24.954,0 -45.27,-2.08 -56.071,-7.48 0,0 8.016,-67.18 18.61,-139.35 -26.004,-4.84 -54.645,-12.52 -78.161,-19.45 0.375,-0.85 0.747,-1.68 1.118,-2.52 m 69.683,74.04 c -34.98,-4.77 -67.89,-11.67 -94.304,-18.09 4.949,-11.49 9.957,-22.93 14.793,-33.85 27.296,6.43 57.941,12.68 84.277,17.78 -1.68,11.78 -3.274,23.23 -4.766,34.16" /></clipPath><radialGradient
       id="radialGradient106"
       spreadMethod="pad"
       gradientTransform="matrix(210.736,172.803,172.803,-210.736,810.215,2216.16)"
       gradientUnits="userSpaceOnUse"
       r="1"
       cy="0"
       cx="0"
       fy="0"
       fx="0"><stop
         id="stop102"
         offset="0"
         style="stop-opacity:1;stop-color:#21201f" /><stop
         id="stop104"
         offset="1"
         style="stop-opacity:1;stop-color:#191716" /></radialGradient><clipPath
       id="clipPath116"
       clipPathUnits="userSpaceOnUse"><path
         id="path114"
         d="m 980.504,1608.54 c -13.633,0 -30.516,8.75 -50.809,34.19 0,0 13.7,-4.53 34.774,-4.53 16.558,0 37.671,2.79 60.281,12.77 0,0 -14.23,-42.43 -44.246,-42.43" /></clipPath><radialGradient
       id="radialGradient122"
       spreadMethod="pad"
       gradientTransform="matrix(292.608,170.52,170.52,-292.608,1085.41,1857.21)"
       gradientUnits="userSpaceOnUse"
       r="1"
       cy="0"
       cx="0"
       fy="0"
       fx="0"><stop
         id="stop118"
         offset="0"
         style="stop-opacity:1;stop-color:#cb955a" /><stop
         id="stop120"
         offset="1"
         style="stop-opacity:1;stop-color:#bf7c48" /></radialGradient><clipPath
       id="clipPath134"
       clipPathUnits="userSpaceOnUse"><path
         id="path132"
         d="m 762.695,1972.15 c -0.691,4.61 -1.379,9.23 -2.054,13.82 0.004,0 0.004,0 0.004,0 0.671,-4.6 1.359,-9.2 2.05,-13.82 v 0" /></clipPath><radialGradient
       id="radialGradient140"
       spreadMethod="pad"
       gradientTransform="matrix(292.608,170.52,170.52,-292.608,1085.41,1857.21)"
       gradientUnits="userSpaceOnUse"
       r="1"
       cy="0"
       cx="0"
       fy="0"
       fx="0"><stop
         id="stop136"
         offset="0"
         style="stop-opacity:1;stop-color:#fae3b6" /><stop
         id="stop138"
         offset="1"
         style="stop-opacity:1;stop-color:#ebc48a" /></radialGradient><clipPath
       id="clipPath150"
       clipPathUnits="userSpaceOnUse"><path
         id="path148"
         d="m 688.434,1953.24 c -1.551,3.44 -3.168,7.04 -4.836,10.76 -0.371,0.84 -0.743,1.67 -1.118,2.52 23.516,6.93 52.157,14.61 78.165,19.45 0.671,-4.59 1.359,-9.21 2.05,-13.82 -19.507,-4.6 -49.007,-11.79 -74.261,-18.91" /></clipPath><radialGradient
       id="radialGradient156"
       spreadMethod="pad"
       gradientTransform="matrix(210.736,172.803,172.803,-210.736,810.215,2216.16)"
       gradientUnits="userSpaceOnUse"
       r="1"
       cy="0"
       cx="0"
       fy="0"
       fx="0"><stop
         id="stop152"
         offset="0"
         style="stop-opacity:1;stop-color:#2b2a2a" /><stop
         id="stop154"
         offset="1"
         style="stop-opacity:1;stop-color:#1d1a1a" /></radialGradient><clipPath
       id="clipPath168"
       clipPathUnits="userSpaceOnUse"><path
         id="path166"
         d="m 770.371,1923.49 c -1.41,8.45 -2.801,17.1 -4.172,25.82 v 0 c 1.375,-8.73 2.766,-17.37 4.172,-25.82" /></clipPath><radialGradient
       id="radialGradient174"
       spreadMethod="pad"
       gradientTransform="matrix(292.608,170.52,170.52,-292.608,1085.41,1857.21)"
       gradientUnits="userSpaceOnUse"
       r="1"
       cy="0"
       cx="0"
       fy="0"
       fx="0"><stop
         id="stop170"
         offset="0"
         style="stop-opacity:1;stop-color:#fae3b6" /><stop
         id="stop172"
         offset="1"
         style="stop-opacity:1;stop-color:#ebc48a" /></radialGradient><clipPath
       id="clipPath184"
       clipPathUnits="userSpaceOnUse"><path
         id="path182"
         d="m 713.086,1906.96 c -3.477,3.13 -5.891,5.12 -5.891,5.12 v 0 0 c 0,0 2.383,-1.94 5.895,-5.12 h -0.004 m -5.891,5.13 v 0 0 m 0,0 v 0 0 m -0.004,0 v 0 0" /></clipPath><radialGradient
       id="radialGradient190"
       spreadMethod="pad"
       gradientTransform="matrix(127.872,137.153,137.153,-127.872,511.035,1888.16)"
       gradientUnits="userSpaceOnUse"
       r="1"
       cy="0"
       cx="0"
       fy="0"
       fx="0"><stop
         id="stop186"
         offset="0"
         style="stop-opacity:1;stop-color:#fae3b6" /><stop
         id="stop188"
         offset="1"
         style="stop-opacity:1;stop-color:#ebc48a" /></radialGradient><clipPath
       id="clipPath200"
       clipPathUnits="userSpaceOnUse"><path
         id="path198"
         d="m 713.09,1906.96 c -3.512,3.18 -5.895,5.12 -5.895,5.12 v 0 c 0,0.01 0,0.01 0,0.01 v 0 0 0 c 0,0 -0.004,0 -0.004,0 v 0 c 0,0 0,0.01 -0.003,0.01 v 0.01 c -0.258,0.55 -4.891,10.56 -11.895,25.99 l 70.906,11.21 c 1.371,-8.72 2.762,-17.37 4.172,-25.82 0.332,-2.02 0.668,-4.02 1.008,-6.02 l -58.289,-10.51" /></clipPath><radialGradient
       id="radialGradient206"
       spreadMethod="pad"
       gradientTransform="matrix(210.736,172.803,172.803,-210.736,810.215,2216.16)"
       gradientUnits="userSpaceOnUse"
       r="1"
       cy="0"
       cx="0"
       fy="0"
       fx="0"><stop
         id="stop202"
         offset="0"
         style="stop-opacity:1;stop-color:#2b2a2a" /><stop
         id="stop204"
         offset="1"
         style="stop-opacity:1;stop-color:#1d1a1a" /></radialGradient><clipPath
       id="clipPath216"
       clipPathUnits="userSpaceOnUse"><path
         id="path214"
         d="m 673.77,1986.1 c -4.836,10.92 -9.844,22.36 -14.793,33.85 26.414,6.42 59.324,13.32 94.304,18.09 1.492,-10.93 3.086,-22.38 4.766,-34.16 -26.336,-5.1 -56.981,-11.35 -84.277,-17.78" /></clipPath><radialGradient
       id="radialGradient222"
       spreadMethod="pad"
       gradientTransform="matrix(210.736,172.803,172.803,-210.736,810.215,2216.16)"
       gradientUnits="userSpaceOnUse"
       r="1"
       cy="0"
       cx="0"
       fy="0"
       fx="0"><stop
         id="stop218"
         offset="0"
         style="stop-opacity:1;stop-color:#2b2a2a" /><stop
         id="stop220"
         offset="1"
         style="stop-opacity:1;stop-color:#1d1a1a" /></radialGradient><clipPath
       id="clipPath240"
       clipPathUnits="userSpaceOnUse"><path
         id="path238"
         d="m 571.121,1501.96 -101.766,-353.2 -145.566,76.41 -50.937,-145.55 c 0,0 271.093,-127.382 274.726,-129.179 3.645,-1.82 65.645,460.199 65.645,460.199 z" /></clipPath><radialGradient
       id="radialGradient246"
       spreadMethod="pad"
       gradientTransform="matrix(280.981,230.335,230.335,-280.981,149.258,1148.78)"
       gradientUnits="userSpaceOnUse"
       r="1"
       cy="0"
       cx="0"
       fy="0"
       fx="0"><stop
         id="stop242"
         offset="0"
         style="stop-opacity:1;stop-color:#21201f" /><stop
         id="stop244"
         offset="1"
         style="stop-opacity:1;stop-color:#191716" /></radialGradient><clipPath
       id="clipPath256"
       clipPathUnits="userSpaceOnUse"><path
         id="path254"
         d="m 1251.88,1541.51 107.18,-341.81 171.04,127.07 72.77,-154.55 -320.21,-159.92 -68.77,436.89 z" /></clipPath><radialGradient
       id="radialGradient262"
       spreadMethod="pad"
       gradientTransform="matrix(296.422,195.802,195.802,-296.422,1512.03,1381.44)"
       gradientUnits="userSpaceOnUse"
       r="1"
       cy="0"
       cx="0"
       fy="0"
       fx="0"><stop
         id="stop258"
         offset="0"
         style="stop-opacity:1;stop-color:#21201f" /><stop
         id="stop260"
         offset="1"
         style="stop-opacity:1;stop-color:#191716" /></radialGradient><clipPath
       id="clipPath276"
       clipPathUnits="userSpaceOnUse"><path
         id="path274"
         d="m 326.648,1179.54 c -40.359,68.68 -147.644,248.34 -147.644,248.34 l -55.41,-32.88 59.883,-112.19 c 0,0 -104.7661,-59.42 -183.477,-121.24 0,0 12.6289,-24.9 32.9883,-57.91 L 170.754,1192.94 60.8984,1078.26 c 15.6641,-24.27 34.6875,-51.14 55.4026,-75.11 l 103.211,109.44 -70.176,-122.621 c 11.621,-12.707 23.699,-24.328 35.977,-33.918 z" /></clipPath><radialGradient
       id="radialGradient282"
       spreadMethod="pad"
       gradientTransform="matrix(121.676,210.355,210.355,-121.676,88.5254,1294.92)"
       gradientUnits="userSpaceOnUse"
       r="1"
       cy="0"
       cx="0"
       fy="0"
       fx="0"><stop
         id="stop278"
         offset="0"
         style="stop-opacity:1;stop-color:#f7d189" /><stop
         id="stop280"
         offset="1"
         style="stop-opacity:1;stop-color:#de9f5d" /></radialGradient><clipPath
       id="clipPath298"
       clipPathUnits="userSpaceOnUse"><path
         id="path296"
         d="m 1556.14,1264.49 c 40.36,68.67 147.64,248.33 147.64,248.33 l 55.42,-32.89 -59.88,-112.18 c 0,0 104.76,-59.43 183.47,-121.25 0,0 -12.63,-24.89 -32.99,-57.9 l -137.76,89.26 109.84,-114.65 c -15.66,-24.29 -34.67,-51.15 -55.39,-75.13 l -103.22,109.44 70.19,-122.62 c -11.62,-12.7 -23.71,-24.33 -35.98,-33.92 z" /></clipPath><radialGradient
       id="radialGradient304"
       spreadMethod="pad"
       gradientTransform="matrix(-121.677,210.357,-210.357,-121.677,1794.26,1379.87)"
       gradientUnits="userSpaceOnUse"
       r="1"
       cy="0"
       cx="0"
       fy="0"
       fx="0"><stop
         id="stop300"
         offset="0"
         style="stop-opacity:1;stop-color:#f7d189" /><stop
         id="stop302"
         offset="1"
         style="stop-opacity:1;stop-color:#de9f5d" /></radialGradient></defs><g
     transform="matrix(1.3333333,0,0,-1.3333333,0,318.57333)"
     id="g10"><g
       transform="scale(0.1)"
       id="g12"><path
         id="path14"
         style="fill:#eb6e18;fill-opacity:1;fill-rule:nonzero;stroke:none"
         d="m 813.301,164.25 -1.426,-72.6914 h 19.949 l 4.543,72.6914 h -23.066" /><path
         id="path16"
         style="fill:#eb6e18;fill-opacity:1;fill-rule:nonzero;stroke:none"
         d="m 957.188,160.641 -3.262,-69.0824 h 21.172 v 69.0824 h -17.91" /><path
         id="path18"
         style="fill:#12100f;fill-opacity:1;fill-rule:nonzero;stroke:none"
         d="M 843.059,1006.2 844.387,502.988 793.855,123.52 h 58.43 l 26.516,369.851 54.195,364.348 11.406,-369.86 -4.539,-364.339 h 56.106 l -23.672,373.968 29.853,514.812 -159.091,-6.1" /><g
         id="g20"><g
           clip-path="url(#clipPath26)"
           id="g22"><path
             id="path34"
             style="fill:url(#radialGradient32);fill-opacity:1;fill-rule:nonzero;stroke:none"
             d="m 571.121,1501.96 680.759,39.55 -123.34,-299.7 -103.79,-53.55 V 860.469 l -84.074,137.48 -136.125,-144.359 -1.367,331.56 -113.575,59.78 -118.488,257.03" /></g></g><path
         id="path36"
         style="fill:#c8c7c5;fill-opacity:1;fill-rule:nonzero;stroke:none"
         d="m 751.582,1512.43 178.113,-340.21 161.335,358.31 z" /><path
         id="path38"
         style="fill:#eb6e18;fill-opacity:1;fill-rule:nonzero;stroke:none"
         d="m 873.809,1462.69 47.492,-69.46 -55.09,-99.75 63.484,-121.26 51.418,114.2 -37.843,106.81 46.828,55.96 -51.504,63.44 -64.785,-49.94" /><path
         id="path40"
         style="fill:#bc3522;fill-opacity:1;fill-rule:nonzero;stroke:none"
         d="m 873.809,1462.69 47.492,-69.46 h 21.969 l 46.828,55.96 -51.504,63.44 -64.785,-49.94" /><path
         id="path42"
         style="fill:#ffffff;fill-opacity:1;fill-rule:nonzero;stroke:none"
         d="m 751.582,1512.43 76.555,-146.23 110.078,120.53 82.665,-112.01 70.15,157.44 -339.448,-19.73" /><path
         id="path44"
         style="fill:#2d1814;fill-opacity:1;fill-rule:nonzero;stroke:none"
         d="m 1092.38,2211.38 1.04,1.07 c 0.5,0.45 1.45,1.7 2.64,3.15 2.3,3.1 5.31,7.92 8.1,14.31 1.11,3.29 2.65,6.78 3.45,10.77 1.19,3.88 1.59,8.19 2.23,12.64 0.22,4.48 0.58,9.19 0.22,13.98 -0.45,4.78 -0.61,9.72 -1.81,14.56 -0.86,4.89 -1.92,9.77 -3.57,14.44 -1.4,4.75 -2.88,9.41 -4.9,13.73 -1.97,4.32 -3.41,8.75 -5.6,12.56 -2.08,3.87 -4.04,7.54 -5.86,10.92 -3.62,6.79 -7.54,11.93 -9.86,15.8 -2.47,3.79 -3.88,5.96 -3.88,5.96 0,0 1.65,-1.98 4.56,-5.43 2.77,-3.56 7.32,-8.25 11.8,-14.63 2.24,-3.19 4.69,-6.65 7.26,-10.32 2.7,-3.61 4.73,-7.91 7.29,-12.12 2.62,-4.2 4.74,-8.83 6.81,-13.64 2.33,-4.68 4.09,-9.7 5.65,-14.85 1.9,-5.04 2.77,-10.38 3.91,-15.62 1.02,-5.25 1.3,-10.6 1.66,-15.76 -0.1,-5.17 0,-10.23 -0.81,-15 -0.41,-4.82 -1.66,-9.26 -2.57,-13.44 -2.43,-8.18 -5.47,-14.8 -8.03,-19.29 -1.39,-2.26 -2.4,-3.97 -3.48,-5.35 -0.87,-1.16 -1.33,-1.78 -1.33,-1.78 l -14.92,13.34" /><g
         id="g46"><g
           clip-path="url(#clipPath52)"
           id="g48"><path
             id="path60"
             style="fill:url(#radialGradient58);fill-opacity:1;fill-rule:nonzero;stroke:none"
             d="m 931.758,1458.14 -186.184,175.21 -6.445,112.31 c 4.101,2.43 8.254,5.41 12.453,9 l -6.711,73.74 6.711,-28.94 40.969,22.17 c -6.848,17.64 -14.723,57.07 -22.18,101.86 -1.406,8.45 -2.797,17.09 -4.172,25.82 v 0 c -1.187,7.58 -2.359,15.21 -3.504,22.84 v 0 c -0.691,4.62 -1.379,9.22 -2.05,13.82 v 0 c -10.598,72.17 -18.614,139.35 -18.614,139.35 10.801,5.4 31.117,7.48 56.071,7.48 84.589,0 222.348,-23.98 222.348,-23.98 29.49,9.88 52.93,20.44 71.43,31.34 l 15.18,-450.01 74.25,-118.58 -249.552,-113.43 m -2.063,184.59 c 20.293,-25.44 37.176,-34.19 50.809,-34.19 30.016,0 44.246,42.43 44.246,42.43 -22.61,-9.98 -43.723,-12.77 -60.281,-12.77 -21.074,0 -34.774,4.53 -34.774,4.53" /></g></g><g
         id="g62"><g
           clip-path="url(#clipPath68)"
           id="g64"><path
             id="path76"
             style="fill:url(#radialGradient74);fill-opacity:1;fill-rule:nonzero;stroke:none"
             d="m 710.594,1737.2 c -63.035,0.01 -101.93,126.19 -57.918,165.81 12.226,11 23.512,15.23 33.64,15.23 7.653,0 14.641,-2.41 20.875,-6.14 0,-0.01 0,-0.01 0,-0.01 v 0 c 0,0 0.004,0 0.004,0 v 0 0 0 c 0,0 0,0 0,-0.01 v 0 c 0,0 2.414,-1.99 5.891,-5.12 h 0.004 c 4.887,-4.41 11.961,-11.2 17.84,-18.42 l 13.941,-60.14 6.711,-73.74 c -4.199,-3.59 -8.352,-6.57 -12.453,-9 -9.899,-5.85 -19.465,-8.47 -28.535,-8.46" /></g></g><path
         id="path78"
         style="fill:#9d7230;fill-opacity:1;fill-rule:nonzero;stroke:none"
         d="m 960.754,2010.4 16.062,-189.86 -5.3,8.38 107.754,-57.23 18.91,-10.06 -19.84,-8.04 -90.86,-35.06 0.743,15.1 67.777,-33.7 23.46,-11.64 -25.63,-6.89 c -5.94,-1.31 -11.33,-2.21 -16.99,-3.09 -5.59,-0.85 -11.2,-1.54 -16.8,-2.15 -11.2,-1.21 -22.442,-1.91 -33.692,-2.14 -22.5,-0.49 -45.086,1.06 -67.305,5.07 -22.168,4.14 -43.984,10.95 -64.102,21.4 -5,2.67 -9.941,5.41 -14.66,8.55 -4.832,2.92 -9.304,6.44 -13.816,9.82 -4.363,3.59 -8.711,7.19 -12.676,11.23 -4.199,3.77 -7.734,8.2 -11.562,12.32 l 5.429,4.75 c 3.867,-3.75 7.403,-7.81 11.582,-11.21 3.946,-3.64 8.242,-6.86 12.539,-10.06 4.434,-3 8.809,-6.11 13.516,-8.65 4.602,-2.76 9.402,-5.12 14.238,-7.4 19.473,-8.95 40.418,-14.4 61.68,-17.31 21.289,-2.79 42.91,-3.24 64.387,-1.74 10.73,0.76 21.452,1.96 32.072,3.62 5.3,0.84 10.59,1.75 15.85,2.81 5.17,1.07 10.59,2.24 15.35,3.55 h 0.02 l -2.18,-18.53 -66.23,36.62 -0.011,0.01 -15.918,8.01 16.66,7.1 89.609,38.14 -0.94,-18.1 -107.751,57.23 -5.274,3.08 -0.019,5.31 -0.93,190.55 4.848,0.21" /><path
         id="path80"
         style="fill:#9d7230;fill-opacity:1;fill-rule:nonzero;stroke:none"
         d="m 659.258,1844.78 c 0.722,6.51 2.773,12.67 6.387,18.51 1.796,2.91 4.062,5.69 6.933,8.07 2.793,2.42 6.25,4.41 10.059,5.51 1.855,0.74 3.808,0.95 5.781,1.1 1.992,0.26 3.906,0.22 5.762,-0.13 1.836,-0.31 3.867,-0.37 5.468,-1.11 l 5,-1.91 c 1.7,-0.65 2.957,-1.72 4.434,-2.56 1.406,-0.92 2.832,-1.86 4.141,-2.83 2.351,-2.27 4.738,-4.43 6.836,-6.84 2.129,-1.58 2.558,-4.59 0.976,-6.72 l -1.035,-1.02 -0.371,-0.27 c -1.426,-1.01 -3.145,-2.3 -4.641,-3.61 -1.57,-1.27 -3.074,-2.64 -4.519,-4.06 -1.504,-1.37 -2.918,-2.84 -4.258,-4.36 -1.348,-1.52 -2.813,-2.95 -3.977,-4.61 l -3.699,-4.8 -3.183,-5.14 c -2.305,-3.34 -3.528,-7.19 -5.372,-10.74 v -0.01 l -7.792,5.71 c 2.46,2.4 4.753,4.24 7.468,5.94 2.649,1.7 5.52,3.18 8.586,4.41 3.086,1.25 6.465,2.05 10.059,2.33 3.574,0.23 7.441,0.09 11.074,-1.16 3.66,-1.03 7.188,-2.93 10.039,-5.23 1.582,-1.07 2.91,-2.34 4.043,-3.69 l 1.797,-1.99 0.437,-0.51 0.11,-0.14 0.058,-0.06 0.02,-0.02 0.664,-1.01 0.137,-0.22 0.527,-0.9 c 0.742,-1.35 1.387,-2.1 2.188,-3.94 0.82,-2.23 1.523,-4.59 2.023,-6.93 0.32,-4.13 0.164,-8.11 -0.91,-11.76 -0.332,-1.94 -1.145,-3.58 -1.863,-5.28 -0.696,-1.71 -1.497,-3.35 -2.532,-4.8 -1.836,-3.14 -4.355,-5.64 -6.816,-8.16 -2.774,-2.21 -5.488,-4.5 -8.848,-5.91 -1.543,-0.87 -3.261,-1.48 -5.058,-1.97 -1.778,-0.48 -3.457,-1.11 -5.391,-1.17 -3.723,-0.55 -7.52,0.06 -11.191,0.88 -3.504,1.35 -6.895,2.97 -9.407,5.46 -2.937,2.08 -4.422,5.17 -6.316,7.78 -1.504,2.82 -2.402,5.84 -3.379,8.68 -0.488,1.44 0.273,3.02 1.719,3.52 1.008,0.34 2.07,0.09 2.793,-0.58 l 0.508,-0.46 c 2.019,-1.9 3.671,-3.94 5.546,-5.55 2.012,-1.39 3.75,-3.09 5.821,-3.73 1.844,-1.18 3.926,-1.13 5.683,-1.62 1.934,0.12 3.703,0.15 5.528,0.84 0.91,0.06 1.797,0.64 2.683,1.03 l 2.59,1.46 c 1.719,1.04 3.223,2.49 4.785,3.84 1.309,1.64 2.676,3.18 3.614,4.98 l 1.347,2.59 0.918,2.64 c 0.567,1.76 0.41,3.41 0.449,4.88 l -0.039,1.23 c -0.156,0.77 -1.191,2.34 -1.738,3.47 l -0.488,0.93 -0.125,0.23 0.613,-0.95 -0.019,0.02 -0.032,0.03 -0.054,0.08 -0.246,0.28 -0.977,1.17 -2,2.13 c -1.34,1.34 -2.816,2.34 -4.465,2.99 -1.601,0.78 -3.457,1.13 -5.449,1.32 -2.012,0.18 -4.192,-0.06 -6.484,-0.37 -2.286,-0.41 -4.637,-1.01 -6.973,-1.89 -2.246,-0.9 -4.766,-1.96 -6.777,-2.95 l -1.829,-0.91 c -2.293,-1.14 -5.066,-0.2 -6.199,2.08 -0.742,1.5 -0.586,3.22 0.235,4.55 h 0.019 c 2.031,4.06 3.524,8.46 6.074,12.21 l 3.594,5.78 4.121,5.35 c 1.309,1.86 2.91,3.44 4.402,5.12 1.489,1.68 3.047,3.3 4.719,4.81 1.602,1.57 3.262,3.1 5.02,4.52 1.726,1.49 3.437,2.8 5.508,4.26 l -0.45,-8.01 c -2.656,1.12 -5.019,2.48 -7.429,3.73 l -3.606,1.51 c -1.172,0.45 -2.304,1.23 -3.476,1.42 l -3.379,1.01 c -1.133,0.49 -2.168,0.24 -3.223,0.52 -1.074,0.27 -2.109,0.29 -3.066,0.11 -0.977,-0.11 -2.012,0.04 -2.918,-0.35 -0.93,-0.29 -1.965,-0.34 -2.844,-0.93 l -2.813,-1.49 c -1.867,-1.17 -3.71,-2.73 -5.449,-4.57 -3.429,-3.65 -6.719,-8.24 -9.453,-13.05 l -0.105,-0.19 c -0.969,-1.7 -3.149,-2.31 -4.856,-1.33 -1.269,0.72 -1.933,2.11 -1.777,3.48" /><path
         id="path82"
         style="fill:#a05a32;fill-opacity:1;fill-rule:nonzero;stroke:none"
         d="m 778.594,1722.41 c 0,0 2.304,4.53 6.523,10.36 4.297,5.87 10.801,13.32 19.141,19.19 4.265,2.8 8.816,5.36 13.555,6.91 2.363,0.77 4.648,1.57 6.953,1.84 2.285,0.38 4.433,0.88 6.464,0.81 2.032,0.02 3.899,0.03 5.547,0.05 1.621,-0.23 3.036,-0.43 4.2,-0.58 2.343,-0.35 3.671,-0.55 3.671,-0.55 l -3.769,-14.73 c 0,0 -0.93,0.2 -2.551,0.55 -0.808,0.18 -1.805,0.41 -2.937,0.67 -1.145,0.05 -2.442,0.13 -3.848,0.21 -1.426,0.22 -2.949,-0.12 -4.57,-0.23 -1.653,-0.02 -3.34,-0.54 -5.098,-0.96 -3.555,-0.86 -7.187,-2.6 -10.762,-4.55 -7.05,-4.24 -13.3,-10.32 -17.461,-15.27 -4.218,-5.08 -6.347,-8.62 -6.347,-8.62 l -8.711,4.9" /><path
         id="path84"
         style="fill:#181615;fill-opacity:1;fill-rule:nonzero;stroke:none"
         d="m 775.02,2017.86 c 0,0 70.117,66.19 156.738,55.88 l 7.226,-52.58 c 0,0 -91.777,-1 -151.582,-55.68 l -12.382,52.38" /><path
         id="path86"
         style="fill:#181615;fill-opacity:1;fill-rule:nonzero;stroke:none"
         d="m 999.824,2020.16 -6.191,-54.68 c 0,0 61.877,2.97 109.307,-32.54 l 10.3,38.67 c 0,0 -47.43,53.68 -113.416,48.55" /><g
         id="g88"><g
           clip-path="url(#clipPath94)"
           id="g90"><g
             clip-path="url(#clipPath100)"
             id="g96"><path
               id="path108"
               style="fill:url(#radialGradient106);fill-opacity:1;fill-rule:nonzero;stroke:none"
               d="m 751,1799 v 2 h -1 v 5 h -1 v 4 h -1 v 4 h -1 v 5 h -1 v 4 h -1 v 4 h -1 v 5 h -1 v 4 h -1 v 4 h -1 v 5 h -1 v 4 h -1 v 4 h -1 v 5 h -1 v 4 h -1 v 4 h -1 v 5 h -1 v 4 h -1 v 4 h -1 v 4 h -1 v 5 h -1 v 1 h -1 v 1 h -1 v 1 h -1 v 2 h -1 v 1 h -1 v 1 h -1 v 1 h -1 v 1 h -1 v 1 h -1 v 1 h -1 v 1 h -1 v 1 h -1 v 1 h -1 v 1 h -1 v 1 h -1 v 1 h -1 v 1 h -1 v 2 h 5 v 1 h 6 v 1 h 5 v 1 h 6 v 1 h 6 v 1 h 5 v 1 h 6 v 1 h 5 v 1 h 6 v 1 h 5 v 1 h 3 v 1 h -1 v 5 h 1 v -4 h 1 v -6 h 1 v -5 h 1 v -6 h 1 v -6 h 1 v -5 h 1 v -5 h 1 v -6 h 1 v -5 h 1 v -5 h 1 v -5 h 1 v -5 h 1 v -4 h 1 v -5 h 1 v -4 h 1 v -4 h 1 v -4 h 1 v -3 h 1 v -4 h 1 v -3 h 1 v -3 h 1 v -3 h 1 v -3 h -1 v -1 h -2 v -1 h -2 v -1 h -2 v -1 h -2 v -1 h -1 v -1 h -2 v -1 h -2 v -1 h -2 v -1 h -2 v -1 h -2 v -1 h -1 v -1 h -2 v -1 h -2 v -1 h -2 v -1 h -2 v -1 h -2 v -1 h -2 v -1 h -1 v -1 h -2 v -1 h -2 v -1 h -2 v -1 z m -45,113 v 2 h -1 v 2 h -1 v 3 h -1 v 2 h -1 v 2 h -1 v 2 h -1 v 2 h -1 v 2 h -1 v 3 h -1 v 2 h -1 v 2 h -1 v 2 h -1 v 2 h -1 v 3 h -1 v 2 h -1 v 2 h -1 v 2 h -1 v 2 h -1 v 3 h 3 v 1 h 3 v 1 h 4 v 1 h 4 v 1 h 3 v 1 h 4 v 1 h 4 v 1 h 4 v 1 h 4 v 1 h 4 v 1 h 4 v 1 h 4 v 1 h 4 v 1 h 4 v 1 h 4 v 1 h 4 v 1 h 4 v 1 h 4 v 1 h 5 v 1 h 1 v -2 h 1 v -7 h 1 v -6 h 1 v -7 h 1 v -2 h -2 v -1 h -7 v -1 h -6 v -1 h -6 v -1 h -7 v -1 h -6 v -1 h -6 v -1 h -7 v -1 h -6 v -1 h -6 v -1 h -7 v -1 h -5 v -1 h 1 v -2 h 1 v -2 h 1 v -3 h 1 v -2 h 1 v -2 h 1 v -2 h 1 v -2 h 1 v -2 h 1 v -3 h 1 v -2 h 1 v -2 h 1 v -1 z m -23,52 v 1 h -1 v 2 h -1 v 2 h -1 v 3 h -1 v 2 h -1 v 2 h -1 v 2 h -1 v 3 h -1 v 2 h -1 v 2 h -1 v 2 h -1 v 3 h -1 v 2 h -1 v 2 h -1 v 2 h -1 v 3 h -1 v 2 h -1 v 2 h -1 v 3 h -1 v 2 h -1 v 2 h -1 v 2 h -1 v 3 h -1 v 2 h -1 v 2 h -1 v 3 h -1 v 2 h -1 v 2 h -1 v 3 h -1 v 2 h -1 v 2 h -1 v 3 h -1 v 2 h -1 v 3 h -1 v 2 h -1 v 2 h -1 v 3 h -1 v 2 h -1 v 3 h -1 v 2 h -1 v 2 h -1 v 3 h -1 v 2 h -1 v 3 h -1 v 2 h -1 v 3 h -1 v 2 h -1 v 3 h -1 v 2 h -1 v 3 h -1 v 2 h -1 v 3 h -1 v 3 h -1 v 2 h -1 v 3 h -1 v 2 h -1 v 3 h -1 v 3 h -1 v 3 h -1 v 3 h -1 v 2 h -1 v 4 h -1 v 3 h -1 v 13 h 1 v 4 h 1 v 4 h 1 v 2 h 1 v 1 h 1 v 2 h 1 v 1 h 1 v 2 h 1 v 2 h 1 v 1 h 1 v 1 h 1 v 1 h 1 v 1 h 1 v 1 h 1 v 1 h 1 v 1 h 1 v 1 h 1 v 1 h 1 v 1 h 2 v 1 h 1 v 1 h 1 v 1 h 1 v 1 h 2 v 1 h 1 v 1 h 2 v 1 h 1 v 1 h 2 v 1 h 2 v 1 h 2 v 1 h 1 v 1 h 1 v 2 h -1 v 2 h -1 v 2 h -1 v 3 h -1 v 2 h -1 v 3 h -1 v 2 h -1 v 3 h -1 v 3 h -1 v 2 h -1 v 3 h -1 v 3 h -1 v 3 h -1 v 3 h -1 v 3 h -1 v 4 h -1 v 3 h -1 v 4 h -1 v 4 h -1 v 6 h -1 v 8 h -1 v 9 h 1 v 5 h 1 v 2 h 1 v 1 h 1 v 2 h 2 v 1 h 1 v 1 h 3 v 1 h 3 v 1 h 3 v 1 h 4 v 1 h 5 v 1 h 5 v 1 h 6 v 1 h 7 v 1 h 8 v 1 h 10 v 1 h 11 v 1 h 13 v 1 h 13 v 1 h 14 v 1 h 14 v 1 h 13 v 1 h 13 v 1 h 11 v 1 h 10 v 1 h 10 v 1 h 9 v 1 h 8 v 1 h 7 v 1 h 7 v 1 h 7 v 1 h 6 v 1 h 5 v 1 h 6 v 1 h 5 v 1 h 5 v 1 h 4 v 1 h 4 v 1 h 4 v 1 h 4 v 1 h 4 v 1 h 4 v 1 h 3 v 1 h 3 v 1 h 3 v 1 h 3 v 1 h 3 v 1 h 3 v 1 h 2 v 1 h 3 v 1 h 3 v 1 h 2 v 1 h 2 v 1 h 2 v 1 h 2 v 1 h 2 v 1 h 2 v 1 h 2 v 1 h 2 v 1 h 2 v 1 h 1 v 1 h 2 v 1 h 2 v 1 h 1 v 1 h 2 v 1 h 1 v 1 h 1 v 1 h 2 v 1 h 1 v 1 h 1 v 1 h 1 v 1 h 2 v 1 h 1 v 1 h 1 v 1 h 1 v 1 h 1 v 1 h 1 v 1 h 1 v 1 h 1 v 1 h 1 v 1 h 1 v 2 h 1 v 1 h 1 v 1 h 1 v 1 h 1 v 2 h 1 v 2 h 1 v 1 h 1 v 2 h 1 v 1 h 1 v 3 h 1 v 2 h 1 v 2 h 1 v 3 h 1 v 4 h 1 v 4 h 1 v 8 h 1 v 15 h -1 v 3 h 4 v -1 h 2 v -1 h 2 v -1 h 1 v -1 h 2 v -1 h 2 v -1 h 2 v -1 h 1 v -1 h 2 v -1 h 2 v -1 h 1 v -1 h 2 v -1 h 1 v -1 h 2 v -1 h 2 v -1 h 1 v -1 h 2 v -1 h 1 v -1 h 1 v -1 h 2 v -1 h 1 v -1 h 2 v -1 h 1 v -1 h 1 v -1 h 2 v -1 h 1 v -1 h 1 v -1 h 1 v -1 h 2 v -1 h 1 v -1 h 1 v -1 h 1 v -1 h 2 v -1 h 1 v -1 h 1 v -1 h 1 v -1 h 1 v -1 h 1 v -1 h 1 v -1 h 1 v -1 h 1 v -1 h 2 v -1 h 1 v -1 h 1 v -1 h 1 v -2 h 1 v -1 h 1 v -1 h 1 v -1 h 1 v -1 h 1 v -1 h 1 v -1 h 1 v -1 h 1 v -1 h 1 v -1 h 1 v -1 h 1 v -2 h 1 v -1 h 1 v -1 h 1 v -1 h 1 v -1 h 1 v -2 h 1 v -1 h 1 v -1 h 1 v -1 h 1 v -2 h 1 v -1 h 1 v -2 h 1 v -1 h 1 v -2 h 1 v -1 h 1 v -2 h 1 v -1 h 1 v -2 h 1 v -2 h 1 v -1 h 1 v -2 h 1 v -2 h 1 v -2 h 1 v -2 h 1 v -2 h 1 v -2 h 1 v -2 h 1 v -3 h 1 v -2 h 1 v -3 h 1 v -2 h 1 v -3 h 1 v -2 h 1 v -4 h 1 v -4 h 1 v -4 h 1 v -4 h 1 v -7 h 1 v -9 h 1 v -24 h 1 v 2 h 1 v 1 h 1 v 2 h 1 v 2 h 1 v 1 h 1 v 2 h 1 v 2 h 1 v 2 h 1 v 3 h 1 v 2 h 1 v 3 h 1 v 3 h 1 v 3 h 1 v 3 h 1 v 5 h 1 v 4 h 1 v 10 h 1 v 20 h -1 v 4 h 1 v -1 h 1 v -1 h 1 v -1 h 1 v -1 h 1 v -1 h 1 v -1 h 1 v -1 h 1 v -2 h 1 v -1 h 1 v -1 h 1 v -2 h 1 v -1 h 1 v -2 h 1 v -1 h 1 v -2 h 1 v -1 h 1 v -2 h 1 v -2 h 1 v -2 h 1 v -2 h 1 v -2 h 1 v -2 h 1 v -2 h 1 v -3 h 1 v -2 h 1 v -4 h 1 v -3 h 1 v -4 h 1 v -6 h 1 v -23 h -1 v -5 h -1 v -5 h -1 v -2 h -1 v -3 h -1 v -2 h -1 v -3 h -1 v -2 h -1 v -2 h -1 v -2 h -1 v -1 h -1 v -2 h -1 v -1 h -1 v -2 h -1 v -2 h -1 v -1 h -1 v -1 h -1 v -2 h -1 v -1 h -1 v -1 h -1 v -1 h -1 v -1 h -1 v -1 h -1 v -2 h -1 v -1 h -1 v -1 h -1 v -1 h -1 v -1 h -1 v -1 h -1 v -1 h -1 v -1 h -2 v -1 h -1 v -1 h -1 v -1 h -1 v -1 h -1 v -1 h -1 v -1 h -2 v -1 h -1 v -1 h -1 v -1 h -1 v -1 h -1 v -1 h -2 v -1 h -1 v -1 h -2 v -1 h -1 v -1 h -2 v -1 h -1 v -1 h -1 v -1 h -2 v -1 h -1 v -1 h -2 v -1 h -2 v -1 h -1 v -1 h -2 v -1 h -2 v -1 h -1 v -1 h -2 v -1 h -2 v -1 h -2 v -1 h -2 v -1 h -2 v -1 h -2 v -1 h -2 v -1 h -2 v -1 h -2 v -1 h -2 v -1 h -2 v -1 h -2 v -1 h -2 v -1 h -2 v -1 h -3 v -1 h -2 v -1 h -3 v -1 h -2 v -1 h -3 v -1 h -2 v -1 h -2 v -1 h -3 v -1 h -3 v -1 h -2 v -1 h -3 v -1 h -3 v -1 h -3 v -1 h -3 v -1 h -3 v -1 h -2 v 1 h -6 v 1 h -6 v 1 h -6 v 1 h -7 v 1 h -6 v 1 h -7 v 1 h -6 v 1 h -7 v 1 h -7 v 1 h -7 v 1 h -8 v 1 h -7 v 1 h -8 v 1 h -7 v 1 h -9 v 1 h -8 v 1 h -9 v 1 h -9 v 1 h -10 v 1 h -10 v 1 h -12 v 1 h -14 v 1 h -17 v 1 h -50 v -1 h -11 v -1 h -6 v -1 h -5 v -1 h -4 v -1 h -3 v -1 h -3 v -1 h -1 v -7 h 1 v -8 h 1 v -8 h 1 v -8 h 1 v -8 h 1 v -8 h 1 v -7 h 1 v -8 h 1 v -7 h 1 v -8 h 1 v -7 h 1 v -8 h 1 v -7 h 1 v -7 h 1 v -7 h 1 v -7 h 1 v -7 h 1 v -7 h 1 v -6 h -5 v -1 h -5 v -1 h -4 v -1 h -5 v -1 h -4 v -1 h -4 v -1 h -5 v -1 h -4 v -1 h -4 v -1 h -4 v -1 h -4 v -1 h -3 v -1 h -4 v -1 h -4 v -1 h -3 v -1 h -4 v -1 h -3 v -1 h -4 v -1 h -3 v -1 h -1 v -2 z m -9,24 v -1 h 3 v 1 h 4 v 1 h 5 v 1 h 4 v 1 h 5 v 1 h 5 v 1 h 4 v 1 h 5 v 1 h 4 v 1 h 5 v 1 h 5 v 1 h 5 v 1 h 5 v 1 h 5 v 1 h 5 v 1 h 5 v 1 h 5 v 1 h 4 v 7 h -1 v 7 h -1 v 7 h -1 v 7 h -1 v 5 h -7 v -1 h -6 v -1 h -6 v -1 h -7 v -1 h -5 v -1 h -6 v -1 h -5 v -1 h -5 v -1 h -6 v -1 h -4 v -1 h -5 v -1 h -5 v -1 h -5 v -1 h -4 v -1 h -5 v -1 h -4 v -1 h -4 v -1 h -4 v -2 h 1 v -2 h 1 v -3 h 1 v -2 h 1 v -2 h 1 v -2 h 1 v -3 h 1 v -2 h 1 v -2 h 1 v -3 h 1 v -2 h 1 v -2 h 1 v -2 h 1 v -3" /></g></g></g><g
         id="g110"><g
           clip-path="url(#clipPath116)"
           id="g112"><path
             id="path124"
             style="fill:url(#radialGradient122);fill-opacity:1;fill-rule:nonzero;stroke:none"
             d="m 980.504,1608.54 c -13.633,0 -30.516,8.75 -50.809,34.19 0,0 13.7,-4.53 34.774,-4.53 16.558,0 37.671,2.79 60.281,12.77 0,0 -14.23,-42.43 -44.246,-42.43" /></g></g><path
         id="path126"
         style="fill:#f1f1f0;fill-opacity:1;fill-rule:nonzero;stroke:none"
         d="m 688.43,1953.23 c -1.551,3.45 -3.172,7.05 -4.832,10.77 1.668,-3.72 3.285,-7.32 4.836,-10.76 l -0.004,-0.01" /><g
         id="g128"><g
           clip-path="url(#clipPath134)"
           id="g130"><path
             id="path142"
             style="fill:url(#radialGradient140);fill-opacity:1;fill-rule:nonzero;stroke:none"
             d="m 762.695,1972.15 c -0.691,4.61 -1.379,9.23 -2.054,13.82 0.004,0 0.004,0 0.004,0 0.671,-4.6 1.359,-9.2 2.05,-13.82 v 0" /></g></g><g
         id="g144"><g
           clip-path="url(#clipPath150)"
           id="g146"><path
             id="path158"
             style="fill:url(#radialGradient156);fill-opacity:1;fill-rule:nonzero;stroke:none"
             d="m 688.434,1953.24 c -1.551,3.44 -3.168,7.04 -4.836,10.76 -0.371,0.84 -0.743,1.67 -1.118,2.52 23.516,6.93 52.157,14.61 78.165,19.45 0.671,-4.59 1.359,-9.21 2.05,-13.82 -19.507,-4.6 -49.007,-11.79 -74.261,-18.91" /></g></g><path
         id="path160"
         style="fill:#f1f1f0;fill-opacity:1;fill-rule:nonzero;stroke:none"
         d="m 707.188,1912.1 v 0.01 -0.01" /><g
         id="g162"><g
           clip-path="url(#clipPath168)"
           id="g164"><path
             id="path176"
             style="fill:url(#radialGradient174);fill-opacity:1;fill-rule:nonzero;stroke:none"
             d="m 770.371,1923.49 c -1.41,8.45 -2.801,17.1 -4.172,25.82 v 0 c 1.375,-8.73 2.766,-17.37 4.172,-25.82" /></g></g><g
         id="g178"><g
           clip-path="url(#clipPath184)"
           id="g180"><path
             id="path192"
             style="fill:url(#radialGradient190);fill-opacity:1;fill-rule:nonzero;stroke:none"
             d="m 713.086,1906.96 c -3.477,3.13 -5.891,5.12 -5.891,5.12 v 0 0 c 0,0 2.383,-1.94 5.895,-5.12 h -0.004 m -5.891,5.13 v 0 0 m 0,0 v 0 0 m -0.004,0 v 0 0" /></g></g><g
         id="g194"><g
           clip-path="url(#clipPath200)"
           id="g196"><path
             id="path208"
             style="fill:url(#radialGradient206);fill-opacity:1;fill-rule:nonzero;stroke:none"
             d="m 713.09,1906.96 c -3.512,3.18 -5.895,5.12 -5.895,5.12 v 0 c 0,0.01 0,0.01 0,0.01 v 0 0 0 c 0,0 -0.004,0 -0.004,0 v 0 c 0,0 0,0.01 -0.003,0.01 v 0.01 c -0.258,0.55 -4.891,10.56 -11.895,25.99 l 70.906,11.21 c 1.371,-8.72 2.762,-17.37 4.172,-25.82 0.332,-2.02 0.668,-4.02 1.008,-6.02 l -58.289,-10.51" /></g></g><g
         id="g210"><g
           clip-path="url(#clipPath216)"
           id="g212"><path
             id="path224"
             style="fill:url(#radialGradient222);fill-opacity:1;fill-rule:nonzero;stroke:none"
             d="m 673.77,1986.1 c -4.836,10.92 -9.844,22.36 -14.793,33.85 26.414,6.42 59.324,13.32 94.304,18.09 1.492,-10.93 3.086,-22.38 4.766,-34.16 -26.336,-5.1 -56.981,-11.35 -84.277,-17.78" /></g></g><path
         id="path226"
         style="fill:#bc3522;fill-opacity:1;fill-rule:nonzero;stroke:none"
         d="m 952.852,1366.2 -59.61,-23.77 -19.433,-35.19 89.472,29.49 -10.429,29.47" /><path
         id="path228"
         style="fill:#bc3522;fill-opacity:1;fill-rule:nonzero;stroke:none"
         d="m 971.973,1312.2 -94.571,-40.1 15.868,-30.29 87.843,44.61 -9.14,25.78" /><path
         id="path230"
         style="fill:#bc3522;fill-opacity:1;fill-rule:nonzero;stroke:none"
         d="m 959.59,1238.62 -53.184,-22.53 14.895,-27.83 19.004,7.5 19.285,42.86" /><path
         id="path232"
         style="fill:#ffffff;fill-opacity:1;fill-rule:nonzero;stroke:none"
         d="m 1050.62,1302.14 90.38,4.26 -27.48,44.98 z" /><g
         id="g234"><g
           clip-path="url(#clipPath240)"
           id="g236"><path
             id="path248"
             style="fill:url(#radialGradient246);fill-opacity:1;fill-rule:nonzero;stroke:none"
             d="m 571.121,1501.96 -101.766,-353.2 -145.566,76.41 -50.937,-145.55 c 0,0 271.093,-127.382 274.726,-129.179 3.645,-1.82 65.645,460.199 65.645,460.199 l -42.102,91.32" /></g></g><g
         id="g250"><g
           clip-path="url(#clipPath256)"
           id="g252"><path
             id="path264"
             style="fill:url(#radialGradient262);fill-opacity:1;fill-rule:nonzero;stroke:none"
             d="m 1251.88,1541.51 107.18,-341.81 171.04,127.07 72.77,-154.55 -320.21,-159.92 -68.77,436.89 37.99,92.32" /></g></g><path
         id="path266"
         style="fill:#ffffff;fill-opacity:1;fill-rule:nonzero;stroke:none"
         d="m 340.176,1197.92 -58.223,36.75 -34.57,-131.37 63.68,-25.47 29.113,120.09" /><path
         id="path268"
         style="fill:#ffffff;fill-opacity:1;fill-rule:nonzero;stroke:none"
         d="m 1526.46,1292.53 45.48,44.2 58.24,-136.99 -60.04,-27.52 -43.68,120.31" /><g
         id="g270"><g
           clip-path="url(#clipPath276)"
           id="g272"><path
             id="path284"
             style="fill:url(#radialGradient282);fill-opacity:1;fill-rule:nonzero;stroke:none"
             d="m 326.648,1179.54 c -40.359,68.68 -147.644,248.34 -147.644,248.34 l -55.41,-32.88 59.883,-112.19 c 0,0 -104.7661,-59.42 -183.477,-121.24 0,0 12.6289,-24.9 32.9883,-57.91 L 170.754,1192.94 60.8984,1078.26 c 15.6641,-24.27 34.6875,-51.14 55.4026,-75.11 l 103.211,109.44 -70.176,-122.621 c 11.621,-12.707 23.699,-24.328 35.977,-33.918 l 141.335,223.489" /></g></g><path
         id="path286"
         style="fill:#9d7230;fill-opacity:1;fill-rule:nonzero;stroke:none"
         d="m 84.8047,1040.52 105.2543,110.27 6.543,-5.93 -99.7856,-115.26 -12.0117,10.92" /><path
         id="path288"
         style="fill:#9d7230;fill-opacity:1;fill-rule:nonzero;stroke:none"
         d="m 159.199,1219.95 c 0,0 1.114,-1.95 3.086,-5.39 1.836,-3.4 4.59,-8.23 8.067,-13.99 6.613,-11.65 15.742,-26.92 25.214,-41.9 5.02,-7.26 9.551,-14.91 14.414,-21.57 2.43,-3.32 4.61,-6.66 6.778,-9.77 2.187,-3.09 3.887,-6.35 6.015,-8.82 7.93,-10.47 12.579,-18.34 12.579,-18.34 l -7.09,-7.05 c 0,0 -7.403,5.6 -17.559,15.35 -2.617,2.38 -4.883,5.35 -7.5,8.38 -2.5,3.1 -5.137,6.38 -7.871,9.76 -5.449,6.82 -10.019,14.85 -15.098,22.56 -2.531,3.87 -4.531,8.03 -6.757,11.98 -2.129,4 -4.395,7.85 -6.211,11.75 -3.672,7.82 -7.168,15.04 -9.649,21.49 -2.519,6.4 -4.492,11.83 -5.801,15.68 -1.289,3.87 -1.843,6.03 -1.843,6.03 l 9.226,3.85" /><path
         id="path290"
         style="fill:#9d7230;fill-opacity:1;fill-rule:nonzero;stroke:none"
         d="m 186.094,1277.14 c 0,0 -0.332,-7.01 0.429,-17.55 0.516,-5.2 1.309,-11.26 2.981,-17.37 0.652,-3.14 1.922,-6.11 2.957,-9.22 1.406,-2.91 2.676,-6 4.473,-8.67 1.777,-2.71 3.593,-5.39 5.957,-7.5 1.992,-2.5 4.629,-4.18 7.089,-5.96 2.266,-2.08 5.254,-2.91 7.708,-4.33 2.449,-1.51 5.242,-1.91 7.644,-2.7 2.473,-0.62 4.641,-1.68 6.777,-1.8 2.11,-0.33 3.946,-0.6 5.45,-0.84 3.046,-0.54 4.785,-0.86 4.785,-0.86 l -0.039,-6.79 c 0,0 -1.907,-0.04 -5.235,-0.1 -1.679,0.02 -3.73,0.03 -6.062,0.04 -2.356,-0.13 -5,0.47 -7.883,1.01 -2.871,0.65 -6.094,0.9 -9.246,2.37 -3.137,1.42 -6.809,2.17 -9.902,4.51 -3.215,2.07 -6.614,4.14 -9.36,7.17 -3.094,2.67 -5.437,6.01 -7.722,9.39 -2.344,3.34 -3.868,7.11 -5.45,10.71 -1.218,3.72 -2.597,7.35 -3.125,10.99 -1.679,7.2 -1.59,14.01 -1.59,19.74 0.418,11.42 2.762,18.88 2.762,18.87 l 6.602,-1.11" /><g
         id="g292"><g
           clip-path="url(#clipPath298)"
           id="g294"><path
             id="path306"
             style="fill:url(#radialGradient304);fill-opacity:1;fill-rule:nonzero;stroke:none"
             d="m 1556.14,1264.49 c 40.36,68.67 147.64,248.33 147.64,248.33 l 55.42,-32.89 -59.88,-112.18 c 0,0 104.76,-59.43 183.47,-121.25 0,0 -12.63,-24.89 -32.99,-57.9 l -137.76,89.26 109.84,-114.65 c -15.66,-24.29 -34.67,-51.15 -55.39,-75.13 l -103.22,109.44 70.19,-122.62 c -11.62,-12.7 -23.71,-24.33 -35.98,-33.92 l -141.34,223.51" /></g></g><path
         id="path308"
         style="fill:#9d7230;fill-opacity:1;fill-rule:nonzero;stroke:none"
         d="m 1785.98,1114.52 -99.79,115.26 6.54,5.96 105.24,-110.3 -11.99,-10.92" /><path
         id="path310"
         style="fill:#9d7230;fill-opacity:1;fill-rule:nonzero;stroke:none"
         d="m 1732.81,1301.03 c 0,0 -0.54,-2.16 -1.85,-6.02 -1.3,-3.86 -3.27,-9.29 -5.78,-15.69 -2.48,-6.45 -5.98,-13.67 -9.65,-21.49 -1.83,-3.9 -4.08,-7.75 -6.22,-11.74 -2.24,-3.95 -4.23,-8.11 -6.77,-11.98 -5.07,-7.71 -9.64,-15.76 -15.09,-22.56 -2.72,-3.39 -5.37,-6.66 -7.88,-9.77 -2.61,-3.02 -4.86,-6.01 -7.48,-8.39 -10.16,-9.73 -17.57,-15.33 -17.57,-15.33 l -7.1,7.05 c 0,0 4.66,7.87 12.59,18.32 2.14,2.48 3.84,5.74 6.02,8.83 2.16,3.11 4.34,6.46 6.78,9.78 4.86,6.65 9.39,14.3 14.41,21.57 9.46,14.96 18.6,30.25 25.22,41.89 3.48,5.76 6.23,10.6 8.07,14 1.95,3.42 3.08,5.39 3.08,5.39 l 9.22,-3.86" /><path
         id="path312"
         style="fill:#9d7230;fill-opacity:1;fill-rule:nonzero;stroke:none"
         d="m 1703.3,1363.2 c 0,0 2.33,-7.46 2.75,-18.89 0,-5.72 0.1,-12.54 -1.58,-19.73 -0.52,-3.65 -1.91,-7.28 -3.12,-10.99 -1.58,-3.6 -3.12,-7.37 -5.45,-10.71 -2.31,-3.38 -4.65,-6.72 -7.74,-9.4 -2.73,-3.02 -6.13,-5.09 -9.35,-7.17 -3.09,-2.33 -6.78,-3.07 -9.9,-4.5 -3.15,-1.47 -6.37,-1.72 -9.24,-2.36 -2.89,-0.55 -5.53,-1.15 -7.89,-1.02 -2.34,-0.01 -4.38,-0.02 -6.06,-0.04 -3.34,0.06 -5.23,0.1 -5.23,0.1 l -0.04,6.8 c 0,0 1.74,0.31 4.78,0.86 1.51,0.23 3.34,0.5 5.44,0.84 2.14,0.11 4.31,1.17 6.78,1.79 2.41,0.79 5.21,1.19 7.65,2.7 2.46,1.42 5.45,2.24 7.71,4.32 2.46,1.78 5.1,3.47 7.09,5.97 2.37,2.11 4.16,4.8 5.95,7.5 1.8,2.68 3.08,5.76 4.47,8.66 1.03,3.12 2.3,6.09 2.96,9.23 1.67,6.11 2.46,12.17 2.98,17.36 0.77,10.55 0.42,17.56 0.42,17.56 l 6.62,1.12" /><path
         id="path314"
         style="fill:#291714;fill-opacity:1;fill-rule:nonzero;stroke:none"
         d="M 844.387,96.7109 H 778.574 L 791.621,70.3984 532.402,16.1289 540.461,0 l 245.711,11.0313 37.949,30.1992 -6.125,-29.1289 26.391,-0.5899 v 85.1992" /><path
         id="path316"
         style="fill:#291714;fill-opacity:1;fill-rule:nonzero;stroke:none"
         d="m 939.766,96.7109 h 65.804 L 992.527,70.3984 1251.74,16.1289 1243.69,0 997.98,11.0313 960.293,36.2695 966.152,12.1016 939.766,11.5117 v 85.1992" /><path
         id="path318"
         style="fill:#1a1817;fill-opacity:1;fill-rule:nonzero;stroke:none"
         d="m 937.891,1898.9 c 0,-20.14 -9.461,-36.47 -21.133,-36.47 -11.68,0 -21.145,16.33 -21.145,36.47 0,20.14 9.465,36.48 21.145,36.48 11.672,0 21.133,-16.34 21.133,-36.48" /><path
         id="path320"
         style="fill:#1a1817;fill-opacity:1;fill-rule:nonzero;stroke:none"
         d="m 1053.38,1898.9 c 0,-20.14 -9.46,-36.47 -21.13,-36.47 -11.68,0 -21.15,16.33 -21.15,36.47 0,20.14 9.47,36.48 21.15,36.48 11.67,0 21.13,-16.34 21.13,-36.48" /></g></g></svg>